<?xml version="1.0" encoding="UTF-8"?>
<svg viewBox="0 0 3479.2126 2299.4751" xmlns="http://www.w3.org/2000/svg">
 <defs>
  <clipPath id="f">
   <path d="m1018 62.862c-54.403-8.0337-157.32 1.1735-220.85 26.142-84.818 8.1342-119.1 22.363-165.5 46.478-104.76 22.838-228.35 81.32-293.16 160.98-54.66 28.592-86.198 58.311-123.26 129.52-65.128 43.911-96.627 101.21-132.96 226.55-33.532 37.881-46.147 84.349-38.705 116.75 0.0068 0.0296 0.0017 0.0635 0 0.0937-85.281 413.4 122.06 1008.4 881.62 1784.9 123.88-17.647 247.35-32.673 362.84 0 776.09-792.88 978.52-1392.4 879.52-1804.3-8.299-34.527-24.277-66.105-31.091-99.629-18.298-90.017-68.743-142.24-117.18-202.58-51.114-102.22-143.58-190.95-207.5-206.17-10.059-38.645-174.42-107.16-203.58-98.049-59.002-38.498-139.8-56.465-188.64-52.21-57.537-34.922-161.5-42.165-221.72-29.117-70.234-22.913-105.75-13.15-179.84 0.65071z"/>
  </clipPath>
  <linearGradient id="e" x1="755.12" x2="755.12" y1="1053.2" y2="169.52" gradientUnits="userSpaceOnUse">
   <stop stop-color="#c9eaf5" offset="0"/>
   <stop stop-color="#e4f4fa" offset="1"/>
  </linearGradient>
  <linearGradient id="d" x1="1063.9" x2="1161" y1="2479.1" y2="2441" gradientTransform="matrix(.92385 0 0 1 88.939 -180)" gradientUnits="userSpaceOnUse">
   <stop stop-color="#b3b3b3" offset="0"/>
   <stop stop-color="#ccc" offset="1"/>
  </linearGradient>
  <linearGradient id="c" x1="1231.5" x2="1306.4" y1="2407.4" y2="2323.7" gradientTransform="matrix(-1 0 0 1 2337 0)" gradientUnits="userSpaceOnUse">
   <stop stop-color="#aa6300" offset="0"/>
   <stop stop-color="#aa6300" stop-opacity="0" offset="1"/>
  </linearGradient>
  <radialGradient id="b" cx="1170.4" cy="2147.4" r="46.903" gradientTransform="matrix(2.9263 .03999 -.09976 7.2992 -2040.3 -13458)" gradientUnits="userSpaceOnUse">
   <stop stop-color="#4bd1f2" offset="0"/>
   <stop stop-color="#ffee70" stop-opacity=".749" offset=".3507"/>
   <stop stop-color="#fd5" stop-opacity=".498" offset=".4951"/>
   <stop stop-color="#fff" stop-opacity="0" offset="1"/>
  </radialGradient>
  <radialGradient id="a" cx="1108.1" cy="2308.7" r="451.67" gradientTransform="matrix(.56985 -.59971 .5548 .52717 -1219.5 1007.6)" gradientUnits="userSpaceOnUse">
   <stop stop-color="#4bd1f2" offset="0"/>
   <stop stop-color="#ffee70" stop-opacity=".749" offset=".2278"/>
   <stop stop-color="#fd5" stop-opacity=".498" offset=".4429"/>
   <stop stop-color="#fff" stop-opacity="0" offset="1"/>
  </radialGradient>
 </defs>
 <path d="m0 0h3449.2v2299.5h-3449.2z" fill="url(#e)"/>
 <g transform="translate(1040.3 172.06)">
  <g transform="translate(-483.66 -649.98)">
   <path d="m1036.3 2414.8c-0.286 2.8979 0.6794 5.8547 2.9851 8.1876 2.1671 2.1928 5.0931 3.3903 8.0975 3.5624v-2.0627c-0.9084-0.519-1.7548-1.1474-2.5048-1.9063-1.8005-1.8219-2.8052-5.5281-3.0194-7.7957z" fill="#1a1a1a"/>
   <path d="m1300.3 2414.8c0.286 2.8979-0.6794 5.8547-2.9851 8.1876-2.1671 2.1928-5.0931 3.3903-8.0975 3.5624v-2.0627c0.9084-0.519 1.7548-1.1474 2.5048-1.9063 1.8005-1.8219 2.8052-5.5281 3.0194-7.7957z" fill="#1a1a1a"/>
   <path d="m1144.5 2247.5s3.6142-40.96 8.433-49.393 3.6141-49.393-8.433-67.464-36.141-56.621-34.937-67.464 20.48-50.598 30.118-66.259 28.913-62.645 28.913-62.645 14.456-6.0236 12.047 18.071-12.047 45.779-14.457 59.031-3.6141 22.89-2.4094 34.937 8.433 25.299 12.047 31.322 8.433 13.252 14.457 25.299 9.6376 15.661 10.842 30.118 1.2047 22.89 1.2047 38.551-4.8189 39.756-8.433 51.803-8.433 27.708-9.6377 33.732-8.433 15.661-8.433 15.661l-19.275-10.842z" fill="url(#b)"/>
   <path d="m1083 2296c-2.9474 0.2571-5.466 2.6593-6.125 6.125l-23.187 121.84h20.312l22.219-116.81c0.8113-4.2654-1.5258-8.4971-5.2812-9.4687l-5.8126-1.5c-0.7041-0.1823-1.4447-0.2469-2.125-0.1876z" fill="#a40"/>
   <path d="m1255.1 2296c2.9474 0.2571 5.466 2.6593 6.125 6.125l23.187 121.84h-20.312l-22.219-116.81c-0.8113-4.2654 1.5258-8.4971 5.2812-9.4687l5.8126-1.5c0.7041-0.1823 1.4447-0.2469 2.125-0.1876z" fill="#a40"/>
   <path d="m1076.8 2294.2h182.46a4.9579 4.9579 0 0 1 4.9579 4.9579 4.9579 4.9579 0 0 1 -4.9579 4.9579h-182.46a4.9579 4.9579 0 0 1 -4.9579 -4.9579 4.9579 4.9579 0 0 1 4.9579 -4.9579" fill="url(#d)"/>
   <g transform="matrix(.78712 0 0 .78712 287.15 509.41)" fill="#b3b3b3">
    <path d="m1082 2232.6h74.213a2.4565 2.4565 0 0 1 2.4565 2.4565 2.4565 2.4565 0 0 1 -2.4565 2.4565h-74.213a2.4565 2.4565 0 0 1 -2.4565 -2.4565 2.4565 2.4565 0 0 1 2.4565 -2.4565"/>
    <path d="m1082 2246.6h74.213a2.4565 2.4565 0 0 1 2.4565 2.4565 2.4565 2.4565 0 0 1 -2.4565 2.4565h-74.213a2.4565 2.4565 0 0 1 -2.4565 -2.4565 2.4565 2.4565 0 0 1 2.4565 -2.4565"/>
    <path d="m1082 2218.6h74.213a2.4565 2.4565 0 0 1 2.4565 2.4565 2.4565 2.4565 0 0 1 -2.4565 2.4565h-74.213a2.4565 2.4565 0 0 1 -2.4565 -2.4565 2.4565 2.4565 0 0 1 2.4565 -2.4565"/>
    <path d="m1082 2204.6h74.213a2.4565 2.4565 0 0 1 2.4565 2.4565 2.4565 2.4565 0 0 1 -2.4565 2.4565h-74.213a2.4565 2.4565 0 0 1 -2.4565 -2.4565 2.4565 2.4565 0 0 1 2.4565 -2.4565"/>
    <path transform="matrix(-.20533,.97869,-.96831,-.24975,0,0)" d="m1861.2-1528.5h63.799a2.726 2.726 0 0 1 2.726 2.726 2.726 2.726 0 0 1 -2.726 2.726h-63.799a2.726 2.726 0 0 1 -2.726 -2.726 2.726 2.726 0 0 1 2.726 -2.726"/>
    <path transform="matrix(.20533,.97869,.96831,-.24975,0,0)" d="m2420.7 663.78h63.799a2.726 2.726 0 0 1 2.726 2.726 2.726 2.726 0 0 1 -2.726 2.726h-63.799a2.726 2.726 0 0 1 -2.726 -2.726 2.726 2.726 0 0 1 2.726 -2.726"/>
   </g>
   <g transform="matrix(.81718 0 0 .81718 215.36 570.82)">
    <path d="m1014.1 2268.5h303.38v180.8h-303.38z" fill="#a40"/>
    <path d="m1011.6 2440.8h308.34a2.5186 2.5186 0 0 1 2.5186 2.5186v7.1046a2.5186 2.5186 0 0 1 -2.5186 2.5186h-308.34a2.5186 2.5186 0 0 1 -2.5186 -2.5186v-7.1046a2.5186 2.5186 0 0 1 2.5186 -2.5186" fill="#520"/>
    <path d="m1013.8 2260.2h303.98a6.9333 6.9333 0 0 1 6.9333 6.9333v7.5162a6.9333 6.9333 0 0 1 -6.9333 6.9333h-303.98a6.9333 6.9333 0 0 1 -6.9333 -6.9333v-7.5162a6.9333 6.9333 0 0 1 6.9333 -6.9333" fill="#520"/>
    <path d="m1107.7389,2282.3772c-1.1568-.3097-2.5776.519-2.9578,2.7007-1.8177,11.099-13.2043,20.0841-16.5515,1.7067-.06-.3239-.16-.6012-.2564-.8562-.3886-2.7015-3.7157-2.9396-4.5484.5614-2.4909,10.9677-14.4271,19.2385-16.6478.6912-.053-.4283-.1449-.7842-.2647-1.099-.5955-2.3389-3.6348-2.4455-4.4834.8658-2.6814,10.9226-14.7627,18.9896-16.6603.4066-.031-.2881-.06-.5488-.1232-.7859 .066-2.7757-3.2102-3.5448-4.5665-.1848-4.1035,10.4717-17.1469,16.8741-16.5681-1.7967 .1111-4.0187-3.8131-3.5598-3.9425.6503-.7427,17.5963 14.0171,20.4306 22.1901,7.8156 3.4994,12.758 15.8919,12.5758 21.8656.9983 4.1334,11.6461 16.126,10.8349 21.6678-.7548 5.3076,13.4461 20.1622,9.904 23.2717-6.8044 .6308-2.3637-.2679-3.8051-1.4246-4.1148z" fill="#ff7f2a" fill-rule="evenodd"/>
    <path d="m1183 2436.1c-12.49 1.249-134.89-26.229-134.89-26.229l-23.731-119.9 4.9959 141.14z" fill="url(#c)"/>
    <path d="m1195.7389,2282.3772c-1.1568-.3097-2.5776.519-2.9578,2.7007-1.8177,11.099-13.2043,20.0841-16.5515,1.7067-.06-.3239-.16-.6012-.2564-.8562-.3886-2.7015-3.7157-2.9396-4.5484.5614-2.4909,10.9677-14.4271,19.2385-16.6478.6912-.053-.4283-.1449-.7842-.2647-1.099-.5955-2.3389-3.6348-2.4455-4.4834.8658-2.6814,10.9226-14.7627,18.9896-16.6603.4066-.031-.2881-.06-.5488-.1232-.7859 .066-2.7757-3.2102-3.5448-4.5665-.1848-4.1035,10.4717-17.1469,16.8741-16.5681-1.7967 .1111-4.0187-3.8131-3.5598-3.9425.6503-.7427,17.5963 14.0171,20.4306 22.1901,7.8156 3.4994,12.758 15.8919,12.5758 21.8656.9983 4.1334,11.6461 16.126,10.8349 21.6678-.7548 5.3076,13.4461 20.1622,9.904 23.2717-6.8044 .6308-2.3637-.2679-3.8051-1.4246-4.1148z" fill="#ff7f2a" fill-rule="evenodd"/>
    <path d="m1283.7389,2282.3772c-1.1568-.3097-2.5776.519-2.9578,2.7007-1.8177,11.099-13.2043,20.0841-16.5515,1.7067-.06-.3239-.16-.6012-.2564-.8562-.3886-2.7015-3.7157-2.9396-4.5484.5614-2.4909,10.9677-14.4271,19.2385-16.6478.6912-.053-.4283-.1449-.7842-.2647-1.099-.5955-2.3389-3.6348-2.4455-4.4834.8658-2.6814,10.9226-14.7627,18.9896-16.6603.4066-.031-.2881-.06-.5488-.1232-.7859 .066-2.7757-3.2102-3.5448-4.5665-.1848-4.1035,10.4717-17.1469,16.8741-16.5681-1.7967 .1111-4.0187-3.8131-3.5598-3.9425.6503-.7427,17.5963 14.0171,20.4306 22.1901,7.8156 3.4994,12.758 15.8919,12.5758 21.8656.9983 4.1334,11.6461 16.126,10.8349 21.6678-.7548 5.3076,13.4461 20.1622,9.904 23.2717-6.8044 .6308-2.3637-.2679-3.8051-1.4246-4.1148z" fill="#ff7f2a" fill-rule="evenodd"/>
    <path d="m1284.2 2281.8c-0.9834 0.1386-1.9978 1.3325-2.0626 3.4375-0.7427 17.596 14.015 20.428 22.188 7.8125 2.1995 8.019 7.9196 10.916 13.344 9.0937v-5.0937c-4.2736 3.0258-9.1617 1.5508-10.312-9.7187-0.031-0.2882-0.062-0.5442-0.125-0.7813 0.066-2.7757-3.2062-3.5475-4.5625-0.1875-4.1035 10.472-17.141 16.89-16.562-1.7812 0.056-2.0094-0.9229-2.9199-1.9062-2.7813z" fill="#ff7f2a" fill-rule="evenodd"/>
   </g>
   <path d="m1063.8 2238.7h208.47a2.7158 2.7158 0 0 1 2.7158 2.7158 2.7158 2.7158 0 0 1 -2.7158 2.7158h-208.47a2.7158 2.7158 0 0 1 -2.7158 -2.7158 2.7158 2.7158 0 0 1 2.7158 -2.7158" fill="#1a1a1a"/>
   <path d="m1276.1 2241.2 24.17 173.66c0.1745 1.2532-0.9647 2.3978-2.554 2.5661s-3.0094-0.7051-3.184-1.9583l-24.17-173.66c-0.1745-1.2533 0.9646-2.3979 2.554-2.5663s3.0094 0.7052 3.184 1.9585z" fill="#1a1a1a"/>
   <path d="m1060.5 2241.2-24.17 173.66c-0.1745 1.2532 0.9647 2.3978 2.554 2.5661s3.0094-0.7051 3.184-1.9583l24.17-173.66c0.1745-1.2533-0.9646-2.3979-2.554-2.5663s-3.0094 0.7052-3.184 1.9585z" fill="#1a1a1a"/>
  </g>
  <path d="m614.33 1561.7-0.6083-485.9" fill="none" stroke="#000" stroke-width="6.1673"/>
  <path d="m754.33 1561.7-0.6083-485.9" fill="none" stroke="#000" stroke-width="6.1673"/>
  <g transform="matrix(.60154 0 0 .60154 -16.046 -30.915)">
   <g transform="translate(50.877 52.765)" clip-path="url(#f)">
    <path d="m1109 2581.5c-90.852-837.58-222.36-2039.5-98.143-2519 63.248-19.105 126.49-29.422 189.74 3.2714 71.778 840.76 9.3492 1675-45.8 2515.7z" fill="#0a508b"/>
    <path d="m1158.1 2584.7c49.525-838.46 109.86-1691.8 42.528-2538.6l209.37 3.2714c165.95 837.95-58.49 1705.8-229 2535.4z" fill="#8cc63e"/>
    <path d="m1184.3 2574.9c138.22-814.11 408.34-1631.2 225.73-2515.7l179.93 49.071c381.64 630.77-387.27 2422.5-376.21 2479.7z" fill="#0a508b"/>
    <path d="m1220.2 2578.2c171.21-689.37 651.19-1573.1 389.3-2437.2l163.57 9.8143c423.13 807.84-222.2 1649-510.34 2417.6z" fill="#8cc63e"/>
    <path d="m1105.2 2581.5c-60.96-836.3-236.67-1997.4-88.328-2535.4l-209.37 3.2714c-229.44 830.9 81.247 1705.1 258.11 2535.4z" fill="#8cc63e"/>
    <path d="m1019.8 2584.7c-216.94-775.65-877.65-1997.2-314.06-2545.2l-330.41 173.39c-388.69 637.82 631.92 2321.8 621.57 2378.3z" fill="#8cc63e"/>
    <path d="m1064.6 2581.5c-142.61-705.24-490.44-1728.6-254.8-2545.2l-152.86 75.81c-451.42 430.55 79.131 1707.7 365.61 2475.9z" fill="#0a508b"/>
    <path d="m1243.1 2574.9c320.19-770.83 884.75-1522.9 572.5-2342.3l127.59-29.443c368.48 947.38-296.73 1633.5-664.1 2384.9z" fill="#0a508b"/>
    <path d="m1269.3 2591.3c443.67-790.83 968.52-1498.5 716.44-2263.8l88.328 114.5c225.5 454.03-46.017 1133.4-778.6 2136.2z" fill="#8cc63e"/>
    <path d="m1295.5 2588c367.98-620.8 994.54-1251 808.04-2123.2l81.786 26.171c189.81 953.24-447.21 1526.8-870.2 2110.1z" fill="#0a508b"/>
    <path d="m1330.4 2597.8c478.68-664.34 898.77-1109.1 899.64-1769.8l52.343-58.886c19.333 824.4-645.8 1492.2-951.98 1828.7z" fill="#fff"/>
    <path d="m297.25 183.5c-24.936 54.922-45.969 109.08-63.406 162.5l14.312-18.562c-203.09 616.59 98.122 1195.8 454.88 1811.2 56.117 93.507 111.49 186.77 163.19 280.34 31.92 55.17 63.756 110.71 95.188 166.66l29.375-10.688c-4.8381-12.409-9.7531-24.827-14.719-37.25-142.42-299.89-954.18-1744.8-600.75-2324.7l1.9375-1c2.6727-9.4674 5.4277-18.964 8.3125-28.438h-88.312zm656.47 2402.3 1.0625 2.1562 1.875-0.6875-2.9375-1.4687z" fill="#0a508b"/>
    <path d="m964.61 2591.3c-443.67-790.83-968.52-1498.5-716.44-2263.8l-88.328 114.5c-226.19 454.31-5.3646 1154.8 778.6 2136.2z" fill="#8cc63e"/>
    <path d="m940.44 2588c-417.43-594.75-1007.5-1282.4-817.86-2155.9l-71.971 58.886c-232.5 1024.4 443.43 1533.1 870.2 2110.1z" fill="#0a508b"/>
   </g>
   <path d="m1246.4 103.76c81.38 743.22-1.6739 1576.8-36.406 2310.6 87.665-7.7464 240.07-2059.4 117.28-2308.2-18.886 0.6325-36.478 2.6158-51.375 5.8438-10.539-3.4382-20.277-6.1553-29.5-8.2188zm-742.94 166.84c-33.997 22.162-64.093 47.585-86.906 75.625-54.66 28.592-86.188 58.291-123.25 129.5-16.541 11.153-30.917 23.193-43.75 36.969-16.913 27.075-32.886 52.336-47.938 73.562-14.453 30.91-27.53 68.589-41.281 116.03-4.6456 5.2483-8.8738 10.67-12.719 16.188-10.266 33.257-19.067 66.018-26.469 98.312 0.1498 0.7591 0.2977 1.5055 0.4687 2.25 0.01 0.0296 0 0.0635 0 0.0937-85.28 413.4 122.06 1008.4 881.62 1784.9 33.44-4.7637 66.863-9.3176 100.09-12.813-175.43-663.57-438.81-1463.6-536.25-2151.3-113.46 634.36 191.88 1429 447.41 2072.1-330.54-699.19-633.1-1543.3-511.03-2241.4zm270.91 215c-49.056 655 182.29 1452.3 329.56 2105.5 13.009-1.3633 25.993-2.5845 38.937-3.5626-90.834-639.21-315.55-1374-368.5-2102zm228.34 126.47c-3.073 666.08 94.354 1317.8 158.5 1974.3 2.5238-0.1484 5.0419-0.277 7.5625-0.4063l-28.219-1434.7c-69.645-124.44-97.851-345.55-137.84-539.19z" opacity=".15"/>
  </g>
  <path d="m573.14 1535.4-339.97-412.21 902.33-2.833-345.63 417.88z" fill="url(#a)"/>
  <path d="m570.46 1532.8c1.1252 10.409 3.1369 20.8 3.4703 31.25 0.4617 6.9528-8.3809 15.887-0.2979 20.614 7.4196 5.8108 20.882 0.6346 17.207-9.9063-1.4144-16.063-10.806-29.587-20.379-41.957z" fill="#8cc63e"/>
  <path d="m790.91 1534.4c-1.1252 10.409-3.1369 20.8-3.4703 31.25-0.4617 6.9527 8.3809 15.887 0.2979 20.614-7.4195 5.8108-20.882 0.6346-17.207-9.9062 1.4144-16.063 10.806-29.587 20.379-41.957z" fill="#8cc63e"/>
  <path transform="matrix(.58333 0 0 .58333 -95.97 367.5)" d="m932.87 1648.1c0 8.1242-6.586 14.71-14.71 14.71s-14.71-6.586-14.71-14.71 6.586-14.71 14.71-14.71 14.71 6.5859 14.71 14.71z" fill="#8cc63e"/>
  <path transform="matrix(.38889 0 0 .38889 82.562 687.96)" d="m932.87 1648.1c0 8.1242-6.586 14.71-14.71 14.71s-14.71-6.586-14.71-14.71 6.586-14.71 14.71-14.71 14.71 6.5859 14.71 14.71z"/>
  <path transform="matrix(.58333 0 0 .58333 394.03 367.5)" d="m932.87 1648.1c0 8.1242-6.586 14.71-14.71 14.71s-14.71-6.586-14.71-14.71 6.586-14.71 14.71-14.71 14.71 6.5859 14.71 14.71z" fill="#8cc63e"/>
  <path transform="matrix(.38889 0 0 .38889 572.56 687.96)" d="m932.87 1648.1c0 8.1242-6.586 14.71-14.71 14.71s-14.71-6.586-14.71-14.71 6.586-14.71 14.71-14.71 14.71 6.5859 14.71 14.71z"/>
  <path d="m440.24 1327.6c14.292 247.44 74.379 276.18 140.36 263.56" fill="none" stroke="#000"/>
  <path d="m928.57 1328.9c-15.423 255.37-82.78 277.99-148.33 262.33" fill="none" stroke="#000"/>
  <path d="m579.88 1591.1c-245.68-354.32-475.61-720.62-545.85-1085.8" fill="none" stroke="#000"/>
  <path d="m791.52 1590c185.21-343.03 494.23-716.21 537.88-1088.5" fill="none" stroke="#000"/>
  <g transform="translate(-479.19 -570.49)">
   <path d="m1090.7 2152.8h6.2474a1.8506 1.8506 0 0 1 1.8506 1.8506v16.196a1.8506 1.8506 0 0 1 -1.8506 1.8506h-6.2474a1.8506 1.8506 0 0 1 -1.8506 -1.8506v-16.196a1.8506 1.8506 0 0 1 1.8506 -1.8506" fill="#808080"/>
   <path d="m1090.7506,2132.3373c-1.0253,0-1.8526.8274-1.8526,1.8526v16.1838c0,1.0252.8273,1.8526 1.8526,1.8526h6.2393c1.0252,0 1.8526-.8274 1.8526-1.8526v-16.1838c0-1.0252-.8274-1.8526-1.8526-1.8526h-6.2393zm.937,1.661h4.3654c.8543,0 1.5544.6788 1.5544,1.5332v13.5007c0,.8543-.7001,1.5332-1.5544,1.5332h-4.3654c-.8544,0-1.5546-.6789-1.5546-1.5332v-13.5007c0-.8544.7002-1.5332 1.5546-1.5332z" fill="#808080"/>
   <path d="m1093.9 2147.1a1.3687 1.3687 0 0 1 1.3687 1.3687v8.8208a1.3687 1.3687 0 0 1 -1.3687 1.3687 1.3687 1.3687 0 0 1 -1.3687 -1.3687v-8.8208a1.3687 1.3687 0 0 1 1.3687 -1.3687" fill="#333"/>
   <g transform="translate(140)">
    <path d="m1090.7 2152.8h6.2474a1.8506 1.8506 0 0 1 1.8506 1.8506v16.196a1.8506 1.8506 0 0 1 -1.8506 1.8506h-6.2474a1.8506 1.8506 0 0 1 -1.8506 -1.8506v-16.196a1.8506 1.8506 0 0 1 1.8506 -1.8506" fill="#808080"/>
    <path d="m1090.7506,2132.3373c-1.0253,0-1.8526.8274-1.8526,1.8526v16.1838c0,1.0252.8273,1.8526 1.8526,1.8526h6.2393c1.0252,0 1.8526-.8274 1.8526-1.8526v-16.1838c0-1.0252-.8274-1.8526-1.8526-1.8526h-6.2393zm.937,1.661h4.3654c.8543,0 1.5544.6788 1.5544,1.5332v13.5007c0,.8543-.7001,1.5332-1.5544,1.5332h-4.3654c-.8544,0-1.5546-.6789-1.5546-1.5332v-13.5007c0-.8544.7002-1.5332 1.5546-1.5332z" fill="#808080"/>
    <path d="m1093.9 2147.1a1.3687 1.3687 0 0 1 1.3687 1.3687v8.8208a1.3687 1.3687 0 0 1 -1.3687 1.3687 1.3687 1.3687 0 0 1 -1.3687 -1.3687v-8.8208a1.3687 1.3687 0 0 1 1.3687 -1.3687" fill="#333"/>
   </g>
  </g>
  <path transform="translate(-475.19 -566.23)" d="m1092.3 2128.9c0 1.5119-1.2256 2.7375-2.7375 2.7375s-2.7375-1.2256-2.7375-2.7375 1.2256-2.7375 2.7375-2.7375 2.7375 1.2256 2.7375 2.7375z" fill="#333"/>
  <path transform="translate(-335.19 -566.23)" d="m1092.3 2128.9c0 1.5119-1.2256 2.7375-2.7375 2.7375s-2.7375-1.2256-2.7375-2.7375 1.2256-2.7375 2.7375-2.7375 2.7375 1.2256 2.7375 2.7375z" fill="#333"/>
 </g>
</svg>
