<?xml version="1.0" encoding="UTF-8"?>
<svg viewBox="0 0 404.5 496" xmlns="http://www.w3.org/2000/svg">
 <path d="m336.75,96.5 .25.5-6.5-1.25q-6.5-1.25-11.5-4.25t-15-6-13.5-4-21.5-5-36-5.5-18.75-2.25-35,0-42.25,2-8.25.25l-.25-1-9.75,2.25q-9.75,2.25-26.75,6.75t-26,9-16,7.5-8.5,4.75-5.5,2.25l-4,.5 2.25-5q2.25-5 6.5-11.25t6.5-8 5.5-5 13.25-11.75 13-10.5 14.5-8 21-9.5 26.5-7 25.5-4 34,1 43.5,6.5 22,7 19.5,10.75 16.5,10 5.75,5 7.5,7 4.75,5.25l5.25,5.25q3.25,3.25 7.25,9.25t4.25,6.5z" fill="#ffaf40" fill-rule="evenodd" stroke="#000" stroke-width="2"/>
 <path d="m330.5,95.75 6.5,1.25 4.75,8.5q4.75,8.5 7.25,16t3.75,15.5l1.25,8-.75,2.5q-.75,2.5-1,2.75l-.25.25-3.5-1.5q-3.5-1.5-5.5-3.5t-4-4.75l-2-2.75-4-1.75q-4-1.75-7.75-3.5t-12.5-5-13.75-3.5l-5-.25-3.5-2.25q-3.5-2.25-12.5-3.75t-16.5-3.5-26-3.5-21-1-5,.75l-2.5.25-.25,1.5q-.25,1.5-2.5,3.5t-3.25,2h-1-1-1l-1.25-3.5-1.25-3.5-.5-1q-.5-1-4.75-4.25t-7-4-5-4.25l-2.25-3.5-1-.25q-1-.25-8.5-1.75t-16.5,1.5l-9,3-3.25,3.75q-3.25,3.75-5.25,5.75t-3.75,3.5l-1.75,1.5v5 5h-.5-.5v-3-3l-1-.25q-1-.25-11.5.5l-10.5.75-1.5,3-1.5,3v1 1l-.75,1.5-.75,1.5-3.25-.75q-3.25-.75-5.25,1.25l-2,2-1,.25-1,.25-2-1.25q-2-1.25-3,.5l-1,1.75h-.5-.5-2-2-1.5-1.5l-.5-.25q-.5-.25-2,.5l-1.5.75-2-1.25q-2-1.25-4.5-1.25h-2.5l-7,2.5q-7,2.5-11.5,5.5t-9.75,7.25-6,5-4.25.5l-3.5-.25 1.75-10q1.75-10 4.75-19t5.25-13.25l2.25-4.25 .5-.25 .5-.25 4-.5q4-.5 5.5-2.25t8.5-4.75 16-7.5 26-9 26.75-6.75l9.75-2.25 .25,1q.25,1 8.25-.25t42.25-2 35,0 18.75,2.25 36,5.5 21.5,5 13.5,4 15,6 11.5,4.25z" fill="#ffdcab" fill-rule="evenodd" stroke="#000" stroke-width="2"/>
 <path d="m22.5,202h-.5l-2.25-11.5q-2.25-11.5-2-14l.25-2.5 .75-1.5 .75-1.5 .5.5q.5.5 1.75,15.5l1.25,15h-.5z" fill-rule="evenodd" stroke="#000" stroke-width="2"/>
 <path d="m41,240.75-2,1.25-5-10-5-10h.5 .5l1.75-7.5q1.75-7.5 3-6.5t2.5-3 1-7.75l-.25-3.75 1.5-.25q1.5-.25 3.25,3.75t3.5,1.25 3.5-1.5 3.5-2 2.5-3 2-1.5 3.25-1.25l2,.5 1.25,3.25q1.25,3.25 4.5,12.75t.25,8.75-3.25-1-1.75,2.75-3.5-.5l-2-3.5-1.25,5.25q-1.25,5.25-2.5,6t-3,3.25-4.25,2l-2.5-.5-.25,3q-.25,3-1,5.75t-2.75,4z" fill-rule="evenodd" stroke="#000" stroke-width="2"/>
 <path d="m52.75,263.5-.75-2.5 2.75,3q2.75,3 7.25,9l4.5,6 1.25,3q1.25,3 .75,3h-.5l-2.5-3.25q-2.5-3.25-7.25-9.5l-4.75-6.25-.75-2.5z" fill-rule="evenodd" stroke="#000" stroke-width="2"/>
 <path d="m71.5,130.75 .5.25 .25,3q.25,3-.5,4.25l-.75,1.25-1.5-3.75-1.5-3.75 1.5-.75q1.5-.75 2-.5z" fill-rule="evenodd" stroke="#000" stroke-width="2"/>
 <path d="m74.5 132.5 0.5-1.5h4l-2.5 1.5-2.5 1.5 0.5-1.5z" fill-rule="evenodd" stroke="#000" stroke-width="2"/>
 <path d="m84,128.75 2,1.25-.5,2.5-.5,2.5h-2q-2,0-2.5-2l-.5-2 1-1.75q1-1.75 3-.5z" fill-rule="evenodd" stroke="#000" stroke-width="2"/>
 <path d="m100,123v-1h2.5q2.5,0 3,2.25l.5,2.25-1.75,1.75-2,2-.25.25-.25.25q-.25.25-1-3.25l-.75-3.5v-1z" fill-rule="evenodd" stroke="#000" stroke-width="2"/>
 <path d="m196.75,114.5 1.25,3.5-.25.5-.25.5 1.75,8.5q1.75,8.5.75,8.75t-.75,10l.25,9.75-1.5,2.5q-1.5,2.5-3-3.5l-1.5-6-1.25-1.5q-1.25-1.5-3.75-.75t-4.75-.5l-2.25-1.25v-2q0-2 3.75-4.25t5.5-2l1.75.25v-3q0-3-1.5-8l-1.5-5-1.75-.75q-1.75-.75-6-3t-8.5-3.75l-4.25-1.5-1.5,1.5q-1.5,1.5-1.5,4.5t-1.25,4-.75,2-1.75,4.5l-2.25,3.5 1.25,1q1.25,1 6.5,3.75t7.25,11.5 1,9l-1,.25 1.25,1.25q1.25,1.25 4.5,4t.25,5.25l-3,2.5 3.5.75q3.5.75 1,2.25t-2.75,3-3,1.5-3,1l-.25,1-1-15.5q-1-15.5-1.75-16.25l-.75-.75-1.5-.5q-1.5-.5-4.5,2t-4.75,2.25-5-2.25l-3.25-2 2,10.5 2,10.5h-2q-2,0-3,4t-4.25,2l-3.25-2 .75,5.5 .75,5.5-3.5,1q-3.5,1-3.5-1t1-2 .25-3-3.25-11.5-4-16-2.75-10.75-1.75-11l-.5-7.75h.5 .5v-5-5l1.75-1.5q1.75-1.5 3.75-3.5t5.25-5.75l3.25-3.75 9-3q9-3 16.5-1.5t8.5,1.75l1,.25 2.25,3.5q2.25,3.5 5,4.25t7,4 4.75,4.25l.5,1 1.25,3.5zm-37.75,26.75 2-.25-1.5,1.75q-1.5,1.75-2,.25t1.5-1.75zm4.25,2.25q-.25-1.5 0,0l.25,1.5-.25-1.5zm24.25-1.75q1.5-1.25 1.5-.25t-1.5,1.25l-1.5.25 1.5-1.25z" fill-rule="evenodd" stroke="#000" stroke-width="2"/>
 <path d="m207.75,258.5 1.25,5.5 .25,6.5q.25,6.5 0,8.5l-.25,2-5.5-.25q-5.5-.25-10.5-2.25t-8.5-4.25-4.5-4.25-5-5l-4-3-2.5-3.25q-2.5-3.25-9.75-9.5t-14-11-9.25-5.5l-2.5-.75 2.5-8.5 2.5-8.5 1.25,1q1.25,1 3,2.25t9.75,4.25 14.75,7.25 8,4.5l1.25.25 .5-2.25q.5-2.25 1-3.75t-.5-1.5-1.25-8l-.25-8 2.5,4.5q2.5,4.5 4.25,7.25t4,5.5l11.25,13.75q9,11 10.25,16.5z" fill-rule="evenodd" stroke="#000" stroke-width="2"/>
 <path d="m144,202q1.5-4 .75,2t-2,7.5-3,2-.25-2.25 2.25-4l.75-1.25 1.5-4z" fill-rule="evenodd" stroke="#000" stroke-width="2"/>
 <path d="m230,355.75 6,2.25-3.5,5q-3.5,5-7.5,7.5l-4,2.5-1.75,4.5q-1.75,4.5-6,8.75t-8.5,8-5,4.75l-.75,1-.75,1-.75,1-5.25-.25q-5.25-.25-6.25,1.5l-1,1.75v-2q0-2-1-2h-1l-3.5-2.25q-3.5-2.25-6-4.25t-13-13-14.5-15.75l-4-4.75v-1-1l3-2.25q3-2.25 13.5-5.25t21-3.5 27.5,2.5 23,5.25z" fill-rule="evenodd" stroke="#000" stroke-width="2"/>
 <path d="m181.25,406.5 .75-.5 .25.5q.25.5-.5,7l-.75,6.5 12,.75 12,.75 1,.25 1,.25-.5,1.5-.5,1.5v-.5-.5l-15.5-.5-15.5-.5 .25,7q.25,7 .5,8l.25,1h13.25q13.25,0 14.5,1l1.25,1 .75,1 .75,1-.25,1.5q-.25,1.5-17.25,1.25t-17.75-11 2-12.5 5-8.5 3-7.25z" fill-rule="evenodd" stroke="#000" stroke-width="2"/>
 <path d="m174,185.5q-.5-3.5 2.25-.75t.5,3.5l-2.25.75-.5-3.5z" fill-rule="evenodd" stroke="#000" stroke-width="2"/>
 <path d="m191.75,168.5q.75-3.5 1.5,0t-.75,3.5h-1.5l.75-3.5z" fill-rule="evenodd" stroke="#000" stroke-width="2"/>
 <path d="m268.5,154.5q3.5,0 8.75,2.75t8,1.75l2.75-1 2,2.75q2,2.75 7.5,2.25t8.75,2.75 2,11.5-3.5,9l-2.25.75 1,7q1,7-2,13t-4.25,6.25l-1.25.25 .25-2.25q.25-2.25-1.25-6.25t0-10 4-9.5 2-4.5-1.25-8.75-3.75-8l-3-.25-1.25,2q-1.25,2-.75,14.5t-3.25,17l-3.75,4.5 1.75,1.5q1.75,1.5 4,8.5t.25,7.75l-2,.75-4-1.5q-4-1.5-5.25-3.25t-1.5-3.75l-.25-2-3.25,2q-3.25,2-3.5,2.25t-3.75.25h-3.5l-1.25-1.25q-1.25-1.25-3.5-4.5t-4.75-4.25-3.75-.25l-1.25.75 1.5-3.5q1.5-3.5 5.25-5.25t6.25-1.5l2.5.25 2.75-12q2.75-12 2-19.25t-2.25-8.25l-1.5-1h3.5zm17,8q1.5,0 2.25,2.75t-.25,4.25l-1,1.5-2,4q-2,4-3.5,16t-4.25,14.25-3,2.5l-.25.25-2.5-3q-2.5-3-4-6.5l-1.5-3.5 5-3.5q5-3.5 7-8t4.25-12.75 3.75-8.25z" fill-rule="evenodd" stroke="#000" stroke-width="2"/>
 <path d="m259.25,156.75 1.25-.75 1.5,6q1.5,6 2.5,8t-.5,9-2.25,7.75l-.75.75-1.25-.25q-1.25-.25-2.25-3.75t-2.5-5-.75-10 2.25-9.75 2.75-2z" fill-rule="evenodd" stroke="#000" stroke-width="2"/>
 <path d="m332.5,178.5q2.5-.5-1.75,11t-8.25,20.5l-4,9 .5,3q.5,3 7-12.5t8-19l1.5-3.5 .75-1.25q.75-1.25 2.25.25t-.75,5.75-3,9 1.5,4 .75,6.25-10.25,21.25-12.75,16.5l-4,2.25 2.25-3q2.25-3 6.25-9t8.5-14 4.5-12.5-1.5-1.5l-1.5,3-4.75,10.25q-4.75,10.25-6.25,10.5t-2.5-2-2.75-1.5-3-3.5-5.25-2.5l-4,1.75 2.25-8.5q2.25-8.5 7-20.5t6-10.5l1.25,1.5 1.25,3.75q1.25,3.75-.5,5t-5.25,10.25-3.75,11 2,2 8.25-14.5 8.75-21 5.25-7z" fill-rule="evenodd" stroke="#000" stroke-width="2"/>
 <path d="m319.25,172.25q1.75-1.75 2.5,0t-.5,5-3,2-1.25-3.25l.5-2 1.75-1.75z" fill-rule="evenodd" stroke="#000" stroke-width="2"/>
 <path d="m325.75 241.25q1.75-3.25 1.5 0t-1.75 3.25h-1.5l1.75-3.25z" fill-rule="evenodd" stroke="#000" stroke-width="2"/>
 <path d="m341,216.75v4.25l-.75,1.5-1.5,3-.75,1.5-2.5.25-2.5.25 1.75-2.75 1.75-2.75 .5-1q.5-1 2.25-4.75l1.75-3.75v4.25z" fill-rule="evenodd" stroke="#000" stroke-width="2"/>
 <path d="m353.25,147.5 .75-2.5 .25.5q.25.5.25,17t-4,33-6.5,21.5l-2.5,5-.25-.5-.25-.5 .25-4.5 .25-4.5-2,4-2.5,5-.5,1-1.75,2.75-1.75,2.75 2.5-.25 2.5-.25-2.25,6.5q-2.25,6.5-6.25,13.5t-5.5,10-7.25,12-7,10-3,4-4.25,4.5-4.75,5-4,5l-1.75,1.5-.75-4q-.75-4-5.5-8.75t-12.75-8.25-13-5.5-8-2.5-23-3.25l-20-2.75-1.25-5.5q-1.25-5.5-10.25-16.5l-11.25-13.75q-2.25-2.75-4-5.5t-4.25-7.25l-2.5-4.5 .25,8q.25,8 1.25,8t.5,1.5-1,3.75l-.5,2.25-1.25-.25q-1.25-.25-8-4.5t-14.75-7.25-9.75-4.25-3-2.25l-1.25-1-2.5,8.5-2.5,8.5 2.5.75q2.5.75 9.25,5.5t14,11 9.75,9.5l2.5,3.25v.5 .5l-7,.75q-7,.75-16,2.25t-23.5,5-18,5-9,3.75l-5.5,2.25-.5,1.25q-.5,1.25-3,3.25t-4,8.25l-1.5,6.25-2-1.75q-2-1.75-5.25-5.5t-5.5-5.75l-2.25-2v-.5-.5h.5q.5,0-.75-3l-1.25-3-4.5-6q-4.5-6-7.25-9l-2.75-3-2.25-2q-2.25-2-6.5-9.5l-4.25-7.5 2-1.25q2-1.25 2.75-4t1-5.75l.25-3 2.5.5q2.5.5 4.25-2t3-3.25 2.5-6l1.25-5.25 2,3.5q2,3.5 3.5.5t1.75-2.75 3.25,1-.25-8.75-4.5-12.75l-1.25-3.25-2-.5q-2-.5-3.25,1.25t-2,1.5-2.5,3-3.5,2-3.5,1.5-3.5-1.25-3.25-3.75l-1.5.25 .25,3.75q.25,3.75-1,7.75t-2.5,3-3,6.5l-1.75,7.5h-.5-.5l-3.5-10-3.5-10h.5 .5l-1.25-15-1.25-15-1.25,1-1.25,1-.75-2q-.75-2-1-12l-.25-10h.5 .5l3.5.25q3.5.25 4.25-.5t6-5 9.75-7.25 11.5-5.5l7-2.5h2.5q2.5,0 4.5,1.25l2,1.25 1.5,3.75 1.5,3.75 .75-1.25q.75-1.25.5-4.25l-.25-3h1.5 1.5l-.5,1.5-.5,1.5 2.5-1.5 2.5-1.5h.5 .5l.5,2q.5,2 2.5,2h2l.5-2.5 .5-2.5 1-.25 1-.25 2-2q2-2 5.25-1.25l3.25.75 .75-1.5 .75-1.5 .75,3.5q.75,3.5 1,3.25l.25-.25 .25-.25 2-2 1.75-1.75-.5-2.25q-.5-2.25-3-2.25h-2.5l1.5-3 1.5-3 10.5-.75q10.5-.75 11.5-.5l1,.25v3 3l.5,7.75q.5,7.75 1.75,11t2.75,10.75 4,16 3.25,11.5-.25,3-1,2 3.5,1l3.5-1-.75-5.5-.75-5.5 3.25,2q3.25,2 4.25-2t3-4h2l-2-10.5-2-10.5 3.25,2q3.25,2 5,2.25t4.75-2.25 4.5-2l1.5.5 .75.75q.75.75 1.75,16.25l1,15.5 .25-1q.25-1 3-1t3-1.5 2.75-3-1-2.25l-3.5-.75 3-2.5q3-2.5-.25-5.25t-4.5-4l-1.25-1.25 1-.25q1-.25-1-9t-7.25-11.5-6.5-3.75l-1.25-1 2.25-3.5q2.25-3.5 1.75-4.5t.75-2 1.25-4 1.5-4.5l1.5-1.5 4.25,1.5q4.25,1.5 8.5,3.75t6,3l1.75.75 1.5,5q1.5,5 1.5,8v3l-1.75-.25q-1.75-.25-5.5,2t-3.75,4.25v2l2.25,1.25q2.25,1.25 4.75.5t3.75.75l1.25,1.5 1.5,6q1.5,6 3,3.5l1.5-2.5-.25-9.75q-.25-9.75.75-10t-.75-8.75l-1.75-8.5 .25-.5 .25-.5h1 1 1q1,0 3.25-2t2.5-3.5l.25-1.5 2.5-.25q2.5-.25 5-.75t21,1 26,3.5 16.5,3.5 12.5,3.75l3.5,2.25 5,.25q5,.25 13.75,3.5t12.5,5 7.75,3.5l4,1.75 2,2.75q2,2.75 4,4.75t5.5,3.5l3.5,1.5 .25-.25q.25-.25 1-2.75zm-209.25,54.5q1.5-4 .75,2t-2,7.5-3,2-.25-2.25 2.25-4l.75-1.25 1.5-4zm30-16.5q-.5-3.5 2.25-.75t.5,3.5l-2.25.75-.5-3.5zm17.75-17q.75-3.5 1.5,0t-.75,3.5h-1.5l.75-3.5zm76.75-14q3.5,0 8.75,2.75t8,1.75l2.75-1 1.25,5q1.25,5 1.75,17.5t-3.25,17l-3.75,4.5 1.75,1.5q1.75,1.5 4,8.5t.25,7.75l-2,.75-4-1.5q-4-1.5-5.25-3.25t-1.5-3.75l-.25-2-3.25,2q-3.25,2-3.5,2.25t-3.75.25h-3.5l-1.25-1.25q-1.25-1.25-3.5-4.5t-4.75-4.25-3.75-.25l-1.25.75 1.5-3.5q1.5-3.5 5.25-5.25t6.25-1.5l2.5.25 2.75-12q2.75-12 2-19.25t-2.25-8.25l-1.5-1h3.5zm-9.25,2.25 1.25-.75 1.5,6q1.5,6 2.5,8t-.5,9-2.25,7.75l-.75.75-1.25-.25q-1.25-.25-2.25-3.75t-2.5-5-.75-10 2.25-9.75 2.75-2zm38.25,6q5.5-.25 8.75,3t2,11.5-3.25,7.75l-2-.5-1.25-2.25q-1.25-2.25-2-10t-4.25-8.5l-3.5-.75 5.5-.25zm2.25,24.25 3.25-2 .25,3.5q.25,3.5.75,8t-2.5,10.5-4.25,6.25l-1.25.25 .25-2.25q.25-2.25-1.25-6.25t0-10 4.75-8zm32.75-8.5q2.5-.5-1.75,11t-8.25,20.5l-4,9 .5,3q.5,3 7-12.5t8-19l1.5-3.5 .75-1.25q.75-1.25 2.25.25t-.75,5.75-3,9 1.5,4 .75,6.25-10.25,21.25-12.75,16.5l-4,2.25 2.25-3q2.25-3 6.25-9t8.5-14 4.5-12.5-1.5-1.5l-1.5,3-4.75,10.25q-4.75,10.25-6.25,10.5t-2.5-2-2.75-1.5-3-3.5-5.25-2.5l-4,1.75 2.25-8.5q2.25-8.5 7-20.5t6-10.5l1.25,1.5 1.25,3.75q1.25,3.75-.5,5t-5.25,10.25-3.75,11 2,2 8.25-14.5 8.75-21 5.25-7zm-13.25-6.25q1.75-1.75 2.5,0t-.5,5-3,2-1.25-3.25l.5-2 1.75-1.75zm6.5,69q1.75-3.25 1.5,0t-1.75,3.25h-1.5l1.75-3.25z" fill="#fffdcc" fill-rule="evenodd" stroke="#000" stroke-width="2"/>
 <path d="m159,141.25 2-.25-1.5,1.75q-1.5,1.75-2,.25t1.5-1.75z" fill="#fffdcc" fill-rule="evenodd" stroke="#000" stroke-width="2"/>
 <path d="m163.25,143.5q-.25-1.5 0,0l.25,1.5-.25-1.5z" fill="#fffdcc" fill-rule="evenodd" stroke="#000" stroke-width="2"/>
 <path d="m187.5,141.75q1.5-1.25 1.5-.25t-1.5,1.25l-1.5.25 1.5-1.25z" fill="#fffdcc" fill-rule="evenodd" stroke="#000" stroke-width="2"/>
 <path d="m171,262.5v-.5l4,3q4,3 5,5t4.5,4.25 8.5,4.25 10.5,2.25l5.5.25 .25-2q.25-2 0-8.5l-.25-6.5 20,2.75q20,2.75 23,3.25t8,2.5 13,5.5 12.75,8.25 5.5,8.75l.75,4v.5 .5l-1.25,1q-1.25,1-5.5,6.25t-6.75,8.5-6,5.5-7,5.5l-3.5,3.25-.25-2.5q-.25-2.5-5-6.75t-16.75-7.75-36.5-5.5-28.5-1.5-21,3.5-24.5,6-10.25,5.25-4.5,6.25l-1.75,4h-.5-.5l-.5-.25q-.5-.25-10.5-10.25t-14-14.75l-4-4.75 1.5-6.25q1.5-6.25 4-8.25t3-3.25l.5-1.25 5.5-2.25q5.5-2.25 9-3.75t18-5 23.5-5 16-2.25l7-.75v-.5z" fill="#f2dc9d" fill-rule="evenodd" stroke="#000" stroke-width="2"/>
 <path d="m261.75 327.5 0.25 2.5-3 4.25q-3 4.25-5 6.25t-10 9.75l-8 7.75-6-2.25q-6-2.25-23-5.25t-27.5-2.5-21 3.5-13.5 5.25l-3 2.25v2l-3.5-3.25q-3.5-3.25-6.5-5.5t-5.75-5.75-5-5.25-5.75-6l-3.5-4.25h1l1.75-4q1.75-4 4.5-6.25t10.25-5.25 24.5-6 21-3.5 28.5 1.5 36.5 5.5 16.75 7.75 5 6.75z" fill="#ffbc03" fill-rule="evenodd" stroke="#000" stroke-width="2"/>
 <path d="m206,424.5v.5l.25,4.5q.25,4.5 0,8l-.25,3.5h-.5-.5l-1.25-1q-1.25-1-14.5-1h-13.25l-.25-1q-.25-1-.5-8l-.25-7 15.5.5 15.5.5v.5z" fill="#ffd359" fill-rule="evenodd" stroke="#000" stroke-width="2"/>
 <path d="m198.25,401 .75-1h.5 .5l-.25,4.5q-.25,4.5.5,8.25t2.75,3.5 3,2.75l1,3-1-.25-1-.25-12-.75-12-.75 .75-6.5q.75-6.5.5-7l-.25-.5 .5-2.5 .5-2.5h1q1,0 1,2v2l1-1.75q1-1.75 6.25-1.5l5.25.25 .75-1z" fill="#5980ff" fill-rule="evenodd" stroke="#000" stroke-width="2"/>
</svg>
