<?xml version="1.0" encoding="UTF-8"?>
<svg version="1.1" viewBox="0 0 735.99 936.52" xmlns="http://www.w3.org/2000/svg" xmlns:xlink="http://www.w3.org/1999/xlink">
 <defs>
  <linearGradient id="ae">
   <stop offset="0"/>
   <stop stop-color="#fbfbfb" offset="1"/>
  </linearGradient>
  <linearGradient id="af">
   <stop stop-color="#fff" stop-opacity=".7" offset="0"/>
   <stop stop-color="#fff" stop-opacity=".2" offset="1"/>
  </linearGradient>
  <linearGradient id="ad">
   <stop stop-color="#fd5" offset="0"/>
   <stop stop-color="#ffcc01" offset=".5"/>
   <stop stop-color="#dcb000" offset="1"/>
  </linearGradient>
  <linearGradient id="bd" x1="394.42" x2="430.25" y1="861.45" y2="805" gradientUnits="userSpaceOnUse" xlink:href="#ae"/>
  <linearGradient id="be" x1="379.07" x2="378.61" y1="854.99" y2="804.77" gradientUnits="userSpaceOnUse" xlink:href="#ae"/>
  <linearGradient id="bf" x1="370.15" x2="352.78" y1="855.14" y2="804.01" gradientUnits="userSpaceOnUse" xlink:href="#ae"/>
  <linearGradient id="ag" x1="387.06" x2="404.15" y1="855.76" y2="804.8" gradientUnits="userSpaceOnUse" xlink:href="#ae"/>
  <linearGradient id="ah" x1="366.91" x2="340.37" y1="857.81" y2="804.1" gradientUnits="userSpaceOnUse" xlink:href="#ae"/>
  <linearGradient id="ai" x1="374.3" x2="365.33" y1="854.23" y2="803.64" gradientUnits="userSpaceOnUse" xlink:href="#ae"/>
  <linearGradient id="aj" x1="383.49" x2="390.82" y1="854.44" y2="803.85" gradientUnits="userSpaceOnUse" xlink:href="#ae"/>
  <linearGradient id="ak" x1="391.11" x2="416.92" y1="856.55" y2="804.13" gradientUnits="userSpaceOnUse" xlink:href="#ae"/>
  <linearGradient id="al" x1="364.04" x2="328.32" y1="863.35" y2="803.97" gradientUnits="userSpaceOnUse" xlink:href="#ae"/>
  <linearGradient id="am" x1="379.15" x2="388.36" y1="850.82" y2="850.82" gradientTransform="matrix(1 0 0 .84969 0 126.48)" gradientUnits="userSpaceOnUse">
   <stop stop-color="#826f30" offset="0"/>
   <stop stop-color="#c8b369" offset=".5"/>
   <stop stop-color="#826f30" offset="1"/>
  </linearGradient>
  <linearGradient id="an" x1="356.09" x2="396.21" y1="874.56" y2="874.56" gradientUnits="userSpaceOnUse">
   <stop stop-color="#333" offset="0"/>
   <stop stop-color="#bbb" offset=".55603"/>
   <stop stop-color="#333" offset="1"/>
  </linearGradient>
  <radialGradient id="ap" cx="391.56" cy="453.37" r="52.431" gradientTransform="matrix(1 0 0 5.7198 0 -2139.8)" gradientUnits="userSpaceOnUse" xlink:href="#ad"/>
  <radialGradient id="aq" cx="287.71" cy="454.48" r="73.192" gradientTransform="matrix(1 0 0 4.0999 0 -1408.1)" gradientUnits="userSpaceOnUse" xlink:href="#ad"/>
  <radialGradient id="ar" cx="488.95" cy="453.73" r="66.732" gradientTransform="matrix(1 0 0 4.4754 0 -1577.7)" gradientUnits="userSpaceOnUse" xlink:href="#ad"/>
  <radialGradient id="as" cx="575.98" cy="454.55" r="95.542" gradientTransform="matrix(1 0 0 3.1247 0 -965.1)" gradientUnits="userSpaceOnUse" xlink:href="#ad"/>
  <radialGradient id="at" cx="204.52" cy="457.79" r="100.12" gradientTransform="matrix(1 0 0 2.974 0 -904.39)" gradientUnits="userSpaceOnUse" xlink:href="#ad"/>
  <radialGradient id="au" cx="625.54" cy="456.46" r="100.38" gradientTransform="matrix(1 0 0 2.9453 0 -887.93)" gradientUnits="userSpaceOnUse" xlink:href="#ad"/>
  <radialGradient id="av" cx="108.23" cy="457.99" r="114.77" gradientTransform="matrix(1 0 0 2.5966 0 -731.89)" gradientUnits="userSpaceOnUse" xlink:href="#ad"/>
  <radialGradient id="aw" cx="677.21" cy="456.01" r="109.52" gradientTransform="matrix(1 0 0 2.6952 0 -773.02)" gradientUnits="userSpaceOnUse" xlink:href="#ad"/>
  <radialGradient id="ax" cx="83.714" cy="461.88" r="118.49" gradientTransform="matrix(1 0 0 2.4932 0 -689.66)" gradientUnits="userSpaceOnUse" xlink:href="#ad"/>
  <linearGradient id="ao" x1="298.21" x2="457.32" y1="783.27" y2="783.27" gradientUnits="userSpaceOnUse">
   <stop stop-color="#ff2d2d" offset="0"/>
   <stop stop-color="#8e0e0e" offset=".45431"/>
   <stop stop-color="#560000" offset="1"/>
  </linearGradient>
  <radialGradient id="ay" cx="233.17" cy="436.23" r="63.875" gradientTransform="matrix(1 0 0 4.6368 0 -1662.3)" gradientUnits="userSpaceOnUse" xlink:href="#af"/>
  <radialGradient id="az" cx="165.92" cy="426.08" r="94.495" gradientTransform="matrix(1 0 0 3.0975 0 -967.03)" gradientUnits="userSpaceOnUse" xlink:href="#af"/>
  <radialGradient id="ba" cx="97.63" cy="421.53" r="113.71" gradientTransform="matrix(1 0 0 2.5299 0 -714.64)" gradientUnits="userSpaceOnUse" xlink:href="#af"/>
  <radialGradient id="bb" cx="340.46" cy="213.08" r="19.054" gradientTransform="matrix(1 0 0 3.0828 0 -443.81)" gradientUnits="userSpaceOnUse" xlink:href="#af"/>
  <radialGradient id="bc" cx="399.81" cy="156.02" r="12.654" gradientTransform="matrix(1 0 0 .65072 0 57.281)" gradientUnits="userSpaceOnUse" xlink:href="#af"/>
 </defs>
 <g transform="translate(-68.299 3.4948)">
  <g transform="matrix(1.2015 0 0 1.2015 -9.8162 -187.99)">
   <path d="m281.43 747.67h190.65l-18.206 18.206h-151.59z" fill="#5d5d00"/>
   <path d="m393.27 863.56 37.761-59.558" fill="none" stroke="url(#bd)" stroke-width=".83232px"/>
   <path d="m378.84 855.57v-50.655" fill="none" stroke="url(#be)" stroke-width=".83232px"/>
   <path d="m370.24 856.8-17.192-52.804" fill="none" stroke="url(#bf)" stroke-width=".83232px"/>
   <path d="m386.82 856.8 17.192-51.576" fill="none" stroke="url(#ag)" stroke-width=".83232px"/>
   <path d="m367.17 859.26-26.709-54.953" fill="none" stroke="url(#ah)" stroke-width=".83232px"/>
   <path d="m374.54 856.19-8.9031-51.576" fill="none" stroke="url(#ai)" stroke-width=".83232px"/>
   <path d="m382.52 855.88 7.9821-51.269" fill="none" stroke="url(#aj)" stroke-width=".83232px"/>
   <path d="m390.51 858.03 26.095-52.804" fill="none" stroke="url(#ak)" stroke-width=".83232px"/>
   <path d="m365.03 864.78-36.226-60.786" fill="none" stroke="url(#al)" stroke-width=".83232px"/>
   <path d="m379.15 841.45h9.2101v15.912h-9.2101z" fill="url(#am)"/>
   <path d="m381.88 853.72c-4.6194-0.3712-9.4547 0.081-13.062 1.3438-1.7345 0.60707-2.699 1.8705-3.5625 3.2812s-1.5846 3.1154-2.2812 5.0312c-1.3934 3.8317-2.5829 8.5416-3.5938 13.188-2.0217 9.2919-3.2812 18.281-3.2812 18.281l4.9688 0.6875s1.2181-8.8548 3.1875-17.906c0.98468-4.5257 2.1517-9.1125 3.4062-12.562 0.62727-1.725 1.2947-3.1456 1.875-4.0938s1.137-1.2573 0.9375-1.1875c2.5322-0.88628 7.0233-1.382 11-1.0625s7.3254 1.7368 7.9375 2.5938c0.0459 0.0642 0.82582 2.4525 1.1562 5.3438s0.51797 6.4897 0.59375 9.9375c0.15155 6.8956-0.0625 13.281-0.0625 13.281l4.9688 0.1875s0.2492-6.5208 0.0937-13.594c-0.0777-3.5365-0.26468-7.2222-0.625-10.375s-0.57336-5.6027-2.0625-7.6875c-2.4579-3.4411-6.9744-4.3163-11.594-4.6875z" color="#000000" fill="url(#an)" style="block-progression:tb;text-indent:0;text-transform:none"/>
   <path d="m361.65 877.78c-2.3917 2.7226-3.1324 16.396-4.6986 24.594l18.501 0.14683s0.22024-4.2581-1.3949-6.4606c-1.6152-2.2025-8.1792-5.9545-8.2526-8.2304s2.0112-0.1194 3.5243-4.7126c1.4938-4.5346-4.7107-6.8721-7.679-5.3376z" fill="#584433"/>
   <path d="m386.75 868.16s-1.9088-3.2303-5.1391-2.4227c-3.2303 0.80757-4.6986 1.6151-4.772 4.3315s3.3037 2.7164 3.1569 5.2859c-0.14684 2.5696-5.1391 3.7442-5.1391 7.1948 0 3.4505 3.1569 7.7821 3.3037 9.2504 0.14683 1.4683 0.14683 3.3037 0.14683 3.3037l9.3972 0.0734z" fill="#584433"/>
   <path d="m382.51 878.22-4.4996 11.829" fill="none" stroke="#9e7759" stroke-linecap="round" stroke-width="4.1616"/>
   <path d="m347.69 157.44c-6.2461 2.9568-31.952 7.0613-31.952 225.02 0 85.269 25.215 248.95 48.104 370.15 5.025 4.6127 30.393 3.5283 32.835-0.12893 10.154-138.68 22.923-245.78 22.923-374.18 0-185.91-34.274-221.45-34.274-221.45-11.695-4.8455-30.482-2.7934-37.635 0.59274z" fill="url(#ap)" stroke="#000" stroke-width=".83232px"/>
   <path d="m350.26 156.15c-7.2149-0.0458-132.13-34.804-132.13 232.24 0 113.08 110.11 345.94 118.72 363.98 3.1185 3.878 22.993 3.1735 27.172 0.27792-11.426-124.25-46.227-246.16-48.281-370.2 0-244.56 34.52-226.3 34.52-226.3z" fill="url(#aq)" stroke="#000" stroke-width=".83232px"/>
   <path d="m419.6 378.3c0-177.84-34.274-221.45-34.274-221.45s132.46-34.527 132.46 224.84c0 106.57-31.9 261.78-92.146 370.96-5.7204 3.8023-22.616 3.0617-28.893 0.01 9.0659-135.24 22.849-245.61 22.849-374.36z" fill="url(#ar)" stroke="#000" stroke-width=".83232px"/>
   <path d="m425.99 752.14s91.797-229.52 91.797-370.45c0-228.38-109.55-225.21-109.55-225.21s190.08-18.272 190.08 230.24c0 144.7-149.76 365.93-149.76 365.93-7.3532 3.647-14.633 2.6967-22.566-0.51162z" fill="url(#as)" stroke="#000" stroke-width=".83232px"/>
   <path d="m310.53 752.49c-15.881-21.113-172.39-232.36-172.39-357.58 0-235.77 162.74-234.04 162.74-234.04s-82.739 16.389-82.739 227.52c0 111.5 109.36 344.61 118.62 363.8-2.7128 3.7532-23.034 3.9422-26.232 0.29518z" fill="url(#at)" stroke="#000" stroke-width=".83232px"/>
   <path d="m466.71 752.54s182.89-205.46 182.89-360.98c0-223.87-190.46-230.24-190.46-230.24s139.13 17.582 139.13 223.71c0 147.82-149.56 367.19-149.56 367.19 6.9857 2.7929 12.863 4.4197 18.005 0.31867z" fill="url(#au)" stroke="#000" stroke-width=".83232px"/>
   <path d="m310.51 752.45c-15.967-21.438-172.37-234.58-172.37-357.54 0-236.55 162.74-234.04 162.74-234.04s-217.59 7.5633-217.59 243.2c0 136.91 188.32 322.97 215 348.64 4.7605 3.5845 10.338 3.8509 12.228-0.2531z" fill="url(#av)" stroke="#000" stroke-width=".83232px"/>
   <path d="m468.42 750.69s208.76-181.28 208.76-353.7c0-214.99-218.04-235.67-218.04-235.67s190.46 7.6349 190.46 230.24c0 153.95-181.18 359.12-181.18 359.12z" fill="url(#aw)" stroke="#000" stroke-width=".83232px"/>
   <path d="m286.89 752.47c-30.738-26.933-221.46-199.86-221.46-344.05 0-217.35 199.46-241.45 199.46-241.45s-181.61 25.16-181.61 237.11c0 135.85 187.88 322.4 214.9 348.53-3.5772 3.4147-8.4892 2.4007-11.298-0.13309z" fill="url(#ax)" stroke="#000" stroke-width=".83232px"/>
   <path d="m223.01 690.94c3.9859-0.54801 7.2617-3.2263 10.307-6.5955 9.6422 3.3642 18.385-0.0193 27.101-3.6005 12.875 5.6034 27.769 3.4728 43.47-1.7584 14.546 6.5049 30.711 4.9197 47.615-0.36459 17.35 6.372 34.97 5.454 52.793-0.942 18.13 5.552 34.556 5.9926 48.903 0.19254 18.387 6.8954 31.704 5.1399 42.061-1.6627 10.967 8.2238 20.438 8.3624 29.044 3.8337 2.327 3.4258 4.8518 6.2712 8.5807 5.9556 12.49-13.296 23.679-26.918 34.283-40.686-4.2942-0.87979-8.9178-4.2456-12.762-8.7948-9.1417 6.2571-20.735 5.7727-35.552-3.576-13.824 7.4256-29.859 9.2481-50.756-1.2451-19.609 9.0874-39.609 9.9612-60.163-0.80818-19.998 10.156-40.98 12.776-63.81 1.2164-20.393 8.4634-39.863 11.024-57.893 4.3645-20.976 6.9903-39.125 8.1383-53.011 0.47626-10.967 6.6572-22.295 9.5206-34.206 6.2554-3.2313 4.3751-7.2789 7.1177-12.402 7.7096 11.73 13.343 23.725 26.686 36.397 40.029z" fill="#f60" fill-opacity=".50199"/>
   <path d="m150.86 606.45c5.1613 0.0718 11.108-0.82775 14.851-6.9055 11.868 5.4454 26.281 1.9821 41.922-5.7817 17.864 8.0813 38.181 3.98 60.263-2.5528 18.712 6.7143 42.934 7.3454 69.213-3.4428 25.956 8.5129 50.601 7.3272 74.192-1.6601 24.917 9.991 48.294 9.4578 70.372 0.0547 21.944 9.7306 41.909 10.669 59.595 1.4774 15.43 9.0687 28.375 10.405 39.55 6.2356 5.819 4.1183 11.828 7.5719 18.585 8.4064-10.374 15.039-20.44 28.465-32.233 43.03-4.2563-1.02-8.6155-3.7001-12.407-8.44-10.545 7.1611-23.001 4.0115-35.906-3.9309-13.704 8.7802-30.695 7.9537-50.549-1.2422-19.109 8.7067-38.955 9.8501-59.954-0.81894-20.341 11.095-41.801 11.896-64.507 1.2297-20.707 8.9799-40.151 11.018-58.02 4.3901-21.206 7.0591-39.428 8.5024-52.603 0.44534-12.881 6.9924-24.408 9.2425-34.451 6.3001-3.1493 4.3614-7.1166 7.0868-12.157 7.665-12.131-14.185-24.098-28.859-35.756-44.46z" fill="#008000" fill-opacity=".49801"/>
   <path d="m655.81 292.68c-8.0284-1.4363-14.992-0.38881-21.424 1.5458-2.3643-9.8931-21.573-16.254-49.463-8.654-12.595-9.7648-36.604-12.321-76.151-5.0637-28.575-9.8689-59.202-12.554-93.444-2.5872-31.933-7.49-64.245-8.1552-97.123 1.3713-31.591-3.123-62.804-4.7343-91.592 3.3525-34.994 0.47087-67.37 1.7683-75.813 10.624-23.458-2.1537-43.749-1.593-50.798 10.319-4.3485-1.6061-9.4552-1.6959-15.223-0.46366 6.1446-16.016 15.224-31.498 26.571-46.568 4.7566-0.17226 7.506 1.6627 10.883 3.2468 11.497-10.435 26.624-14.128 45.788-10.323 19.365-9.9541 42.757-11.185 68.687-6.9148 20.614-12.493 50.281-12.452 85.111-5.261 27.198-10.641 56.522-11.713 88.101-2.6362 28.226-9.94 56.993-9.0498 86.315 2.9196 22.935-7.8184 46.248-8.4643 70.276 4.4847 19.783-7.2131 37.048-4.2238 46.502 8.1462 4.5099-2.7163 7.2439-3.3064 13.94-2.743 11.114 13.146 21.048 27.809 28.856 45.205z" fill="#008000" fill-opacity=".49801"/>
   <path d="m672.37 344.41c-8.3394-1.946-16.975-2.5598-26.257-0.26172-4.0768-10.704-23.143-12.415-50.835-8.9499-19.927-9.216-47.882-9.441-79.601-5.4507-28.254-7.3631-60.268-8.4598-97.035-1.6341-33.876-4.9055-67.943-5.2149-102.29 1.2246-35.617-1.3788-68.665-0.64157-96.263 4.5831-30.99-0.30666-58.042 2.3875-79.107 9.6431-21.406-1.1668-40.332 1.3205-54.184 10.541-5.5665-0.76927-11.005-1.9058-17.044 0.6365 3.5004-18.069 8.2216-35.441 15.028-51.621 4.8437-1.2288 9.9061-1.1458 15.223 0.46366 6.735-10.238 24.195-13.326 50.798-10.319 9.8017-8.4398 37.675-11.157 75.813-10.624 24.384-6.7515 55.87-6.9939 91.592-3.3525 31.876-9.423 64.301-8.97 97.123-1.3713 32.61-9.1298 63.672-7.6766 93.444 2.5872 38.608-7.1285 63.084-4.8352 76.151 5.0637 26.3-5.6751 43.677-3.4653 49.641 8.8314 6.6151-2.6764 13.685-3.3046 21.247-1.7232 7.2688 16.661 13.52 33.661 16.558 51.733z" fill="#f60" fill-opacity=".5"/>
   <path d="m327.88 804.3h103.15c6.4836-14.02 15.212-28.04 25.788-42.059h-158.11c11.258 13.098 21.949 26.536 29.165 42.059z" fill="url(#ao)" stroke="#000" stroke-width=".83232px"/>
   <path d="m350.9 930.48 30.7 1.535 1.535-42.059h-7.368l-2.149 9.2101-15.043 0.30701-0.92101-10.131h-6.754z" fill="#d45500" stroke="#000" stroke-width=".83232px"/>
   <path d="m381.6 932.02 23.025 0.61401-1.535-42.673h-19.955z" fill="#520" stroke="#000" stroke-width=".83232px"/>
   <path d="m346.47 754.37s-87.859-221.31-87.859-369.84c0-148.52 43.968-223.65 43.968-223.65s-80.32 20.079-80.32 226.76c0 98.669 115.45 365.04 115.45 365.04 3.1257 0.92433 5.8257 1.6595 8.7622 1.6852z" fill="url(#ay)"/>
   <path d="m260.35 168.84s-76.511 79.627-76.511 221.92c0 176.6 126.1 339 144.43 361.67 1.4365 1.7768 1.439 1.7266 1.439 1.7266-5.9313 0.33472-12.646 0.21776-18.932-1.4138-14.286-19.988-169.52-239.87-169.52-356.79 0-197.34 119.09-227.11 119.09-227.11z" fill="url(#az)"/>
   <path d="m309.73 752.09c-21.321-21.816-198.6-207.59-198.6-353.02 0-176.56 110.09-219.15 110.09-219.15s-136.06 63.706-136.06 220.19c0 115.77 186.63 323.33 213.13 352.21 5.4571 2.8003 8.4392 2.8789 11.436-0.23254z" fill="url(#ba)"/>
   <path d="m346.9 271.32c-2.6054-54.02 0.25811-95.436 22.502-116.32-38.89-3.5605-48.607 52.866-22.502 116.32z" fill="url(#bb)"/>
   <path d="m410.87 171.73c-8.2455-4.0639-15.887-9.3356-23.211-15.243 8.4127 0.30693 29.302-4.0828 23.211 15.243z" fill="url(#bc)"/>
   <path d="m444.82 158.92c-9.4706-0.80834-19.399-1.6167-29.793-2.425 13.829 5.2093 20.991 5.5099 29.793 2.425z" fill="none" stroke="#000" stroke-width=".83232px"/>
   <path d="m466.37 753.3-9.9687 8.891" fill="none" stroke="#000" stroke-width=".83232px"/>
   <path d="m448.86 752.22-6.1968 9.6993" fill="none" stroke="#000" stroke-width=".83232px"/>
   <path d="m425.96 752.22-3.7719 9.4298" fill="none" stroke="#000" stroke-width=".83232px"/>
   <path d="m396.32 752.49-0.80827 9.4298" fill="none" stroke="#000" stroke-width=".83232px"/>
   <path d="m363.72 752.76 0.53885 9.1604" fill="none" stroke="#000" stroke-width=".83232px"/>
   <path d="m336.51 752.49 3.2331 9.4298" fill="none" stroke="#000" stroke-width=".83232px"/>
   <path d="m310.11 752.49 6.4662 9.1604" fill="none" stroke="#000" stroke-width=".83232px"/>
   <path d="m297.17 752.22 10.238 9.9687" fill="none" stroke="#000" stroke-width=".83232px"/>
   <path d="m288.55 753.57 10.508 8.891" fill="none" stroke="#000" stroke-width=".83232px"/>
   <path d="m362.98 892.93 7.4292 4.4351" fill="none" stroke="#9e7759" stroke-linecap="round" stroke-width="4.1616"/>
  </g>
 </g>
</svg>
